<svg width="31" height="20" viewBox="0 0 31 20" fill="none" xmlns="http://www.w3.org/2000/svg">
<rect x="0.137207" y="0.441406" width="30" height="19" rx="3" fill="#306FC8"/>
<mask id="mask0_133_4896" style="mask-type:alpha" maskUnits="userSpaceOnUse" x="0" y="0" width="31" height="20">
<rect x="0.137207" y="0.441406" width="30" height="19" rx="3" fill="url(#paint0_linear_133_4896)"/>
</mask>
<g mask="url(#mask0_133_4896)">
<path d="M13.1208 14.3558V11.5898L11.8286 12.9521L13.1208 14.3558Z" fill="white"/>
<path d="M7.70557 11.9375V12.5601L9.55323 12.5563V13.2695H7.70557V13.9525H9.77695L10.7413 12.9412L9.81553 11.9375H7.70557Z" fill="white"/>
<path d="M15.5549 6.69613C15.663 6.63576 15.7285 6.51501 15.7285 6.36784C15.7285 6.22068 15.6591 6.11502 15.5549 6.05842C15.4547 6.00182 15.3042 5.99805 15.1538 5.99805H14.1123V6.76783H15.1422C15.3042 6.76783 15.4392 6.76028 15.5549 6.69613Z" fill="white"/>
<path d="M1.68799 7.23877H2.84133L2.26273 5.86523L1.68799 7.23877Z" fill="white"/>
<path d="M15.0652 11.9375H13.9658V12.8054H15.0574C15.3776 12.8054 15.5782 12.6545 15.5782 12.3564C15.5743 12.0583 15.366 11.9375 15.0652 11.9375Z" fill="white"/>
<path d="M1.90387 8.63901H2.62904L2.95692 9.41256H5.79206V8.8239L6.04664 9.41256H7.51243L7.76701 8.81636V9.41256H14.8105V8.15223H14.9494C15.0497 8.15223 15.0767 8.16355 15.0767 8.31826V9.41256H18.718V9.11446C19.0073 9.26917 19.4624 9.41256 20.0719 9.41256H21.6033L21.935 8.63901H22.6602L22.988 9.41256H25.9312V8.68051L26.3825 9.41256H28.747V4.59766H26.4095V5.16367L26.0739 4.59766H23.6708V5.16367L23.3776 4.59766H20.1298C19.582 4.59766 19.0999 4.66935 18.718 4.87312V4.59766H16.4807V4.87312C16.2184 4.66558 15.8906 4.59766 15.5202 4.59766H7.33113L6.77568 5.83912L6.22022 4.59766H3.64352V5.16367L3.35036 4.59766H1.15169L0.137207 6.88058V9.41256H1.57599L1.90387 8.63901ZM18.8761 5.68063C19.1461 5.40517 19.5782 5.27687 20.1606 5.27687H20.9668V6.01647H20.176C19.8636 6.01647 19.69 6.06175 19.5242 6.22401C19.3776 6.3674 19.2773 6.64286 19.2773 7.00511C19.2773 7.3749 19.3506 7.63527 19.5164 7.8164C19.6399 7.95224 19.8752 7.99375 20.1028 7.99375H20.4808L21.6688 5.27687H22.9263L24.3574 8.54467V5.27687H25.6457L27.127 7.68055V5.27687H27.9949V8.73334H26.7914L25.1983 6.14476V8.73334H23.4818L23.1578 7.95979H21.4027L21.0787 8.73334H20.0989C19.6862 8.73334 19.1654 8.63901 18.8723 8.34845C18.5753 8.05412 18.4248 7.65791 18.4248 7.03152C18.4248 6.51833 18.5174 6.05043 18.8761 5.68063ZM17.148 5.27687H18.0121V8.73334H17.148V5.27687ZM13.2714 5.27687H15.2155C15.6437 5.27687 15.96 5.29197 16.23 5.44291C16.5 5.59762 16.6659 5.82402 16.6659 6.20891C16.6659 6.75606 16.2879 7.03907 16.0641 7.12586C16.2493 7.19378 16.4074 7.3183 16.4807 7.42019C16.6003 7.58622 16.6196 7.7447 16.6196 8.04658V8.73334H15.771V8.29562C15.771 8.09186 15.7903 7.78998 15.6321 7.62773C15.5125 7.5032 15.3274 7.47679 15.0188 7.47679H14.1123V8.73334H13.2676V5.27687H13.2714ZM9.86926 5.27687H12.6851V5.9976H10.7102V6.62022H12.635V7.32962H10.7102V8.01262L12.6851 8.00884V8.72957H9.86926V5.27687ZM1.06297 8.73334H0.144922L1.65314 5.27687H2.91063L4.3417 8.54467V5.27687H5.72262L6.82196 7.62018L7.83644 5.27687H9.24051V8.73334H8.37647V6.02779L7.15369 8.73334H6.41309L5.18645 6.02401V8.73334H3.46608L3.14207 7.95979H1.38698L1.06297 8.73334Z" fill="white"/>
<path d="M22.2784 5.86523L21.7036 7.23877H22.8531L22.2784 5.86523Z" fill="white"/>
<path d="M28.2689 12.0155C28.1802 12.0721 28.1416 12.1551 28.1416 12.2645C28.1416 12.3928 28.2187 12.4834 28.3268 12.5211C28.4116 12.5513 28.508 12.5588 28.6508 12.5588L29.1021 12.5701C29.5688 12.5815 29.8774 12.6569 30.0664 12.8494C30.0934 12.8758 30.1166 12.9022 30.1358 12.9286V11.9551H28.6045C28.454 11.9551 28.3499 11.9626 28.2689 12.0155Z" fill="white"/>
<path d="M28.9978 14.669H27.37V13.9294H28.99C29.1482 13.9294 29.2601 13.9068 29.3295 13.8464C29.3874 13.7936 29.4298 13.7181 29.4298 13.62C29.4298 13.5181 29.3874 13.4389 29.3256 13.3898C29.2639 13.337 29.1752 13.3144 29.0325 13.3144C28.2456 13.2917 27.2542 13.3408 27.2542 12.2427C27.2542 11.7484 27.5744 11.2163 28.4616 11.2163H30.1395V10.5371H28.5773C28.1106 10.5371 27.7596 10.6428 27.5204 10.8126V10.5371H25.2176C24.8511 10.5371 24.4114 10.6239 24.207 10.8126V10.5371H20.0835V10.8126C19.7556 10.5862 19.204 10.5371 18.9417 10.5371H16.2223V10.8126C15.9638 10.5673 15.3929 10.5371 15.0419 10.5371H11.9946L11.2965 11.2767L10.6484 10.5371H6.10449V15.352H10.5674L11.281 14.6011L11.9599 15.3482L14.7063 15.352V14.2162H14.9802C15.3428 14.2162 15.7748 14.2087 16.149 14.0502V15.352H18.4248V14.0917H18.5367C18.6755 14.0917 18.6871 14.103 18.6871 14.2313V15.352H25.5724C26.0045 15.352 26.4712 15.2426 26.7258 15.0464V15.352H28.909C29.3603 15.352 29.8078 15.2879 30.1472 15.1294V14.2351C29.9274 14.5294 29.5416 14.669 28.9978 14.669ZM15.0111 13.5144H13.9619V14.669H12.3187L11.2849 13.5332L10.2048 14.6728H6.86053V11.2163H10.255L11.2887 12.3521L12.3649 11.2163H15.0651C15.7285 11.2163 16.4807 11.405 16.4807 12.3597C16.4769 13.3144 15.7478 13.5144 15.0111 13.5144ZM20.0873 13.3596C20.2069 13.5257 20.2262 13.6842 20.23 13.986V14.669H19.3814V14.2313C19.3814 14.0275 19.4007 13.7257 19.2426 13.5634C19.1191 13.4389 18.9378 13.4125 18.6293 13.4125H17.7228V14.669H16.878V11.2126H18.8221C19.2503 11.2126 19.5627 11.2276 19.8366 11.3824C20.1066 11.5371 20.2725 11.7635 20.2725 12.1484C20.2725 12.6955 19.8945 12.9785 19.6746 13.0653C19.8597 13.1332 20.0179 13.2578 20.0873 13.3596ZM23.5551 11.9371H21.584V12.5597H23.5126V13.2729H21.584V13.9558H23.5589V14.6728H20.7431V11.2163H23.5589V11.9371H23.5551ZM25.6997 14.669H24.0565V13.9294H25.692C25.8502 13.9294 25.962 13.9068 26.0315 13.8464C26.0893 13.7936 26.1318 13.7181 26.1318 13.62C26.1318 13.5181 26.0893 13.4389 26.0276 13.3898C25.9659 13.337 25.8772 13.3144 25.7345 13.3144C24.9476 13.2917 23.9562 13.3408 23.9562 12.2427C23.9562 11.7446 24.2764 11.2163 25.1636 11.2163H26.8531V11.9559H25.3063C25.152 11.9559 25.0517 11.9597 24.9668 12.0125C24.8781 12.0691 24.8434 12.1521 24.8434 12.2616C24.8434 12.3899 24.9206 12.4804 25.0286 12.5182C25.1173 12.5484 25.2099 12.5559 25.3526 12.5559L25.8039 12.5672C26.2706 12.5785 26.5792 12.654 26.7682 12.8465C26.9341 13.02 27.0228 13.22 27.0228 13.5785C27.0267 14.3181 26.5561 14.669 25.6997 14.669Z" fill="white"/>
<path d="M19.1653 11.9941C19.065 11.9413 18.9107 11.9375 18.7641 11.9375H17.7227V12.7073H18.7526C18.9146 12.7073 19.0534 12.7035 19.1653 12.6394C19.2733 12.579 19.3389 12.4582 19.3389 12.3111C19.335 12.1601 19.2694 12.0545 19.1653 11.9941Z" fill="white"/>
</g>
<defs>
<linearGradient id="paint0_linear_133_4896" x1="15.1372" y1="0.441406" x2="15.1372" y2="19.4414" gradientUnits="userSpaceOnUse">
<stop stop-color="#1B8ABA"/>
<stop offset="1" stop-color="#005D9C"/>
</linearGradient>
</defs>
</svg>
