<svg width="21" height="21" viewBox="0 0 21 21" fill="none" xmlns="http://www.w3.org/2000/svg">
<path fill-rule="evenodd" clip-rule="evenodd" d="M6.6262 0.513672C5.05569 0.513672 3.54951 1.13755 2.43899 2.24807C1.32847 3.35859 0.70459 4.86477 0.70459 6.43528L0.70459 14.3308C0.70459 15.9013 1.32847 17.4074 2.43899 18.518C3.54951 19.6285 5.05569 20.2524 6.6262 20.2524H14.5217C16.0922 20.2524 17.5984 19.6285 18.7089 18.518C19.8194 17.4074 20.4433 15.9013 20.4433 14.3308V6.43528C20.4433 4.86477 19.8194 3.35859 18.7089 2.24807C17.5984 1.13755 16.0922 0.513672 14.5217 0.513672L6.6262 0.513672ZM5.96824 10.383C5.96824 9.16151 6.45348 7.99004 7.31722 7.1263C8.18095 6.26256 9.35243 5.77732 10.5739 5.77732C11.7954 5.77732 12.9669 6.26256 13.8307 7.1263C14.6944 7.99004 15.1796 9.16151 15.1796 10.383C15.1796 11.6045 14.6944 12.776 13.8307 13.6397C12.9669 14.5035 11.7954 14.9887 10.5739 14.9887C9.35243 14.9887 8.18095 14.5035 7.31722 13.6397C6.45348 12.776 5.96824 11.6045 5.96824 10.383ZM15.1796 5.77732H16.4955V4.46141H15.1796V5.77732Z" fill="white"/>
</svg>
