<svg width="97" height="45" viewBox="0 0 97 45" fill="none" xmlns="http://www.w3.org/2000/svg">
<path fill-rule="evenodd" clip-rule="evenodd" d="M6.64153 18.1028C6.64153 17.0987 6.64128 16.0948 6.64128 15.0907C6.64128 14.8346 6.55045 12.3692 6.71897 12.1524L6.76058 12.226C6.81559 12.3958 6.80054 17.0925 6.78894 17.8175C6.78302 18.1933 6.81253 18.0287 6.64153 18.1028ZM24.7398 13.4982C24.8049 13.421 24.9633 13.3856 25.0199 13.2997C25.1986 13.0284 24.7844 12.602 24.6374 12.4165C24.1287 11.7749 24.7291 11.8458 24.9264 11.3405C24.9746 11.0254 24.64 10.9081 24.4762 10.7218C24.3358 10.5622 24.4016 10.6506 24.344 10.4939C24.863 10.249 26.0447 9.07667 26.5218 8.61919C26.879 8.27677 27.2197 7.94732 27.3331 7.41159C27.3992 7.0997 27.4476 4.88442 27.3218 4.50361C27.0501 3.68054 27.2603 2.66111 27.0839 1.80727C26.8371 0.612587 25.1872 0.788248 25.5674 1.50442C25.7538 1.85536 25.7534 1.95767 25.712 2.36251C25.2244 2.29509 25.5082 1.93583 25.1183 1.81788C24.9094 2.09991 25.1692 2.52101 25.3206 2.77633C26.1648 4.19969 26.1091 3.35579 25.9843 5.48609C25.9525 6.02818 26.0249 7.09863 25.5182 7.4074C25.1806 7.61302 24.2955 8.22558 23.9182 8.26677C23.6244 7.65807 23.7087 7.83961 23.6298 7.1945C23.5421 6.47827 22.7264 6.19309 22.552 5.66956C22.412 5.24969 22.6248 5.16618 22.3195 4.60292C22.1567 4.30239 21.9288 4.14451 21.7481 3.80982C21.1276 2.6605 20.6275 2.89532 20.2781 2.64574C19.2705 1.92618 18.2101 2.07016 17.5211 3.02692C17.1375 3.55947 16.9496 4.26649 16.9594 5.07518C16.965 5.54105 16.7466 5.57565 16.4964 5.90833C15.5112 7.21816 16.0548 8.05441 16.2064 8.97735C16.0526 9.10725 15.4721 9.32878 15.2215 9.47319C14.8889 9.66481 14.6266 9.82069 14.4517 10.1767C14.1633 10.7639 14.3723 10.553 13.7376 10.9307C11.8409 12.0596 12.0395 11.3733 10.116 11.3266C9.59486 11.3139 9.37704 11.1678 8.82585 11.1184C8.11959 11.055 7.6587 9.9659 6.90212 10.177C6.45743 10.3011 5.99028 10.9515 6.09231 11.425C6.34883 12.6149 6.1969 16.1896 6.22105 17.6634C6.22616 17.9749 6.28152 18.058 5.91042 18.0641C5.5628 18.0698 5.6664 17.9945 5.45947 17.833C5.06737 17.5271 4.68793 17.6887 4.32256 17.8367C3.58185 18.1368 2.3956 18.0398 1.79342 18.3084C1.20017 18.5731 1.23752 18.4593 1.00815 18.9634C0.744814 19.5421 0.755651 18.9599 0.634188 20.0181C0.588366 20.4176 0.556049 20.8817 0.506464 21.2848C0.404571 22.1135 0.72106 24.8806 0.627758 25.3599C0.580785 25.6011 0.423748 25.5459 0.342042 25.8255C0.155776 26.4626 0.120595 28.3365 0.0413885 29.0937C-0.0325957 29.8011 -0.0312761 31.0846 0.247926 31.6832C0.441914 32.0991 0.611502 32.278 0.648339 32.7615C0.682425 33.2089 1.04962 33.2983 1.25414 33.5336C1.02929 34.0848 1.1096 34.1701 1.41895 34.6245C2.02793 35.5192 3.1706 35.1896 2.87573 34.3728C2.84276 34.2815 2.62679 34.0296 2.55733 33.9528C2.38513 33.7624 2.28714 33.7918 2.24494 33.577L5.90756 33.6293C5.89571 33.6368 5.85295 33.6631 5.83925 33.6716C5.78323 33.7061 5.7966 33.6925 5.73918 33.7313C5.21357 34.0868 5.5608 35.11 6.08111 35.24C6.55059 35.3573 6.90268 35.0612 6.9373 34.7099L7.10063 33.5873C7.4598 33.5576 7.72319 33.5365 7.81874 33.2515C7.92184 32.9439 7.84735 21.3773 7.84741 19.9711C7.84746 18.6761 8.00455 18.8239 7.37059 18.43L7.37085 12.0545C7.78114 12.1807 7.58033 12.4413 8.22996 12.5109C8.60527 12.551 8.6808 12.7735 9.09343 12.9354C9.87463 13.2418 10.4026 13.2588 11.294 13.3464C12.2842 13.4439 12.6222 13.5446 13.6056 13.2287C14.2834 13.0109 14.8636 12.6157 15.406 12.4117L15.4803 12.6188C15.503 12.7069 15.4684 12.6634 15.5139 12.7727C15.9073 12.8389 16.1438 12.6719 16.4313 12.5837C16.747 13.033 16.096 14.0824 15.8967 14.484C15.3614 15.5632 14.9638 15.1528 15.0841 16.2209C14.9344 16.3839 14.6516 16.548 14.447 16.6947C13.8651 17.1118 13.3102 17.7539 12.8486 18.256C12.188 18.9747 11.4492 19.6746 10.6863 20.3577C9.61991 21.3124 9.78815 21.4535 10.5742 22.2083C11.0754 22.6896 11.0142 22.9159 11.79 23.1003C12.0321 23.1578 12.1888 23.3743 12.4274 23.523C12.8464 23.7842 13.4166 24.0933 14.0036 24.0775C14.7036 24.0586 15.033 23.704 15.5405 23.4358C15.8955 23.2482 16.6122 23.792 16.8875 24.058C17.0538 24.2187 17.0651 24.5704 17.1587 24.8241C17.2575 25.0921 17.3569 25.3 17.4675 25.5609C17.6097 25.8962 17.3946 26.8185 18.2709 28.9628C18.4397 29.3757 18.76 30.0467 18.8045 30.4994C18.8837 31.3038 18.7677 31.6344 18.3685 32.1445C17.5714 33.1625 18.1375 33.35 18.0175 33.739C17.9333 34.0116 17.0978 34.6444 17.8428 35.0682C18.3728 35.3697 18.9368 35.5124 19.5586 35.1783C19.877 35.0072 19.8769 34.9045 19.9618 34.5224C20.1872 33.5072 20.358 34.2688 20.5858 32.0556C20.6257 31.6688 20.6024 31.4981 20.7162 31.1354C20.9813 30.2904 21.1229 29.2958 21.0888 28.3954C21.0661 27.7967 20.8426 27.2247 20.7663 26.6489C20.6635 25.8734 20.8136 25.4782 21.0564 24.8953C21.8771 24.9972 22.0288 24.64 22.6909 24.3896C23.2279 24.1865 23.7914 23.9863 24.2825 23.7435C25.1754 23.3021 26.6474 22.6635 26.1057 21.3972C25.9078 20.9348 25.4918 20.5349 25.1338 20.1625C24.4011 19.4005 23.8634 18.5451 23.0093 17.8677C22.7458 17.6588 21.9306 17.1463 21.7545 16.9401C21.8409 16.7941 21.8348 16.8321 21.9701 16.7144C22.3347 16.3972 22.1448 16.1664 22.106 15.81C22.1925 15.7481 22.8731 15.4198 22.9034 15.4141L23.2838 15.6938C23.4638 15.6151 23.3238 15.6845 23.4456 15.4997C24.0163 15.5001 24.2262 15.7876 24.4179 15.2432C24.5021 15.0041 24.4754 15.1324 24.572 14.9808C24.7005 14.7792 24.6044 14.5812 24.6632 14.2978C24.9421 14.1564 25.4395 14.1089 24.7398 13.4982Z" fill="#00AA96"/>
<path d="M34.2641 25.3471L30.8761 15.7711H34.1241L36.1961 22.0991H36.2521L38.3801 15.7711H41.2921L37.9041 25.3471L41.4601 35.3711H38.2121L35.9721 28.5391H35.9161L33.6201 35.3711H30.7081L34.2641 25.3471ZM42.9231 15.7711H46.0031V35.3711H42.9231V15.7711ZM48.3099 15.7711H52.7059L54.6659 29.7991H54.7219L56.6819 15.7711H61.0779V35.3711H58.1659V20.5311H58.1099L55.8699 35.3711H53.2939L51.0539 20.5311H50.9979V35.3711H48.3099V15.7711ZM63.3763 15.7711H71.7763V18.5711H66.4563V23.7511H70.6843V26.5511H66.4563V32.5711H71.7763V35.3711H63.3763V15.7711ZM73.5481 15.7711H77.4121L80.4081 27.5031H80.4641V15.7711H83.2081V35.3711H80.0441L76.3481 21.0631H76.2921V35.3711H73.5481V15.7711ZM87.8774 15.7711H92.0494L95.2414 35.3711H92.1614L91.6014 31.4791V31.5351H88.1014L87.5414 35.3711H84.6854L87.8774 15.7711ZM91.2374 28.8751L89.8654 19.1871H89.8094L88.4654 28.8751H91.2374Z" fill="#00AA96"/>
</svg>
