<svg width="31" height="20" viewBox="0 0 31 20" fill="none" xmlns="http://www.w3.org/2000/svg">
<rect x="0.137207" y="0.441406" width="30" height="19" rx="3" fill="#0F3560"/>
<path d="M17.7549 14.6095H12.5054V5.27344H17.7549V14.6095Z" fill="#FF5F00"/>
<path d="M12.8419 9.9414C12.8419 8.04755 13.7379 6.36056 15.1333 5.27339C14.1129 4.4784 12.8251 4.0039 11.4255 4.0039C8.11214 4.0039 5.42627 6.66217 5.42627 9.9414C5.42627 13.2206 8.11214 15.8789 11.4255 15.8789C12.8251 15.8789 14.1129 15.4044 15.1333 14.6094C13.7379 13.5223 12.8419 11.8353 12.8419 9.9414Z" fill="#EB001B"/>
<path d="M24.8349 9.9414C24.8349 13.2206 22.149 15.8789 18.8356 15.8789C17.436 15.8789 16.1482 15.4044 15.1274 14.6094C16.5232 13.5223 17.4193 11.8353 17.4193 9.9414C17.4193 8.04755 16.5232 6.36056 15.1274 5.27339C16.1482 4.4784 17.436 4.0039 18.8356 4.0039C22.149 4.0039 24.8349 6.66217 24.8349 9.9414Z" fill="#F79E1B"/>
<path d="M9.9409 9.97904C9.9409 9.71969 10.1126 9.50663 10.3933 9.50663C10.6614 9.50663 10.8425 9.71051 10.8425 9.97904C10.8425 10.2476 10.6614 10.4515 10.3933 10.4515C10.1126 10.4515 9.9409 10.2384 9.9409 9.97904ZM11.1481 9.97904V9.24128H10.8239V9.42042C10.7211 9.28756 10.565 9.20418 10.3529 9.20418C9.93483 9.20418 9.60706 9.52854 9.60706 9.97904C9.60706 10.4299 9.93483 10.7539 10.3529 10.7539C10.565 10.7539 10.7211 10.6705 10.8239 10.5377V10.7168H11.1481V9.97904ZM22.104 9.97904C22.104 9.71969 22.2757 9.50663 22.5564 9.50663C22.8249 9.50663 23.0055 9.71051 23.0055 9.97904C23.0055 10.2476 22.8249 10.4515 22.5564 10.4515C22.2757 10.4515 22.104 10.2384 22.104 9.97904ZM23.3115 9.97904V8.64873H22.987V9.42042C22.8841 9.28756 22.7281 9.20418 22.516 9.20418C22.0979 9.20418 21.7701 9.52854 21.7701 9.97904C21.7701 10.4299 22.0979 10.7539 22.516 10.7539C22.7281 10.7539 22.8841 10.6705 22.987 10.5377V10.7168H23.3115V9.97904ZM15.1725 9.49144C15.3813 9.49144 15.5156 9.62111 15.5499 9.84937H14.7761C14.8108 9.63631 14.9415 9.49144 15.1725 9.49144ZM15.1789 9.20418C14.7419 9.20418 14.4362 9.519 14.4362 9.97904C14.4362 10.4483 14.7544 10.7539 15.2007 10.7539C15.4253 10.7539 15.6309 10.6984 15.812 10.5472L15.6531 10.3094C15.5281 10.408 15.3689 10.4638 15.2192 10.4638C15.0104 10.4638 14.8201 10.3681 14.7733 10.1024H15.8805C15.8837 10.0624 15.8869 10.0221 15.8869 9.97904C15.8837 9.519 15.5967 9.20418 15.1789 9.20418ZM19.0936 9.97904C19.0936 9.71969 19.2654 9.50663 19.546 9.50663C19.8142 9.50663 19.9952 9.71051 19.9952 9.97904C19.9952 10.2476 19.8142 10.4515 19.546 10.4515C19.2654 10.4515 19.0936 10.2384 19.0936 9.97904ZM20.3009 9.97904V9.24128H19.9766V9.42042C19.8735 9.28756 19.7178 9.20418 19.5057 9.20418C19.0876 9.20418 18.7598 9.52854 18.7598 9.97904C18.7598 10.4299 19.0876 10.7539 19.5057 10.7539C19.7178 10.7539 19.8735 10.6705 19.9766 10.5377V10.7168H20.3009V9.97904ZM17.2627 9.97904C17.2627 10.4267 17.5776 10.7539 18.0582 10.7539C18.2828 10.7539 18.4324 10.7044 18.5945 10.5779L18.4388 10.3186C18.3171 10.4052 18.1892 10.4515 18.0485 10.4515C17.7897 10.4483 17.5994 10.2631 17.5994 9.97904C17.5994 9.69496 17.7897 9.50981 18.0485 9.50663C18.1892 9.50663 18.3171 9.55292 18.4388 9.63949L18.5945 9.38014C18.4324 9.25364 18.2828 9.20418 18.0582 9.20418C17.5776 9.20418 17.2627 9.53136 17.2627 9.97904ZM21.4427 9.20418C21.2556 9.20418 21.1339 9.29074 21.0496 9.42042V9.24128H20.7282V10.7168H21.0528V9.88965C21.0528 9.64549 21.1589 9.50981 21.3709 9.50981C21.4366 9.50981 21.5052 9.519 21.5738 9.54691L21.6737 9.24446C21.602 9.21654 21.5084 9.20418 21.4427 9.20418ZM12.7516 9.35858C12.5956 9.25682 12.3807 9.20418 12.1436 9.20418C11.7658 9.20418 11.5227 9.38332 11.5227 9.67659C11.5227 9.91721 11.7037 10.0656 12.0372 10.1119L12.1903 10.1334C12.3682 10.1582 12.4521 10.2045 12.4521 10.2879C12.4521 10.402 12.3335 10.467 12.1122 10.467C11.8876 10.467 11.7255 10.396 11.6162 10.3126L11.4634 10.5624C11.6412 10.6921 11.8658 10.7539 12.1089 10.7539C12.5395 10.7539 12.7891 10.5532 12.7891 10.2723C12.7891 10.013 12.5927 9.87728 12.2682 9.83099L12.1154 9.80909C11.975 9.79071 11.8626 9.76315 11.8626 9.66422C11.8626 9.5561 11.9686 9.49144 12.1464 9.49144C12.3367 9.49144 12.521 9.56246 12.6113 9.61793L12.7516 9.35858ZM16.9349 9.20418C16.7478 9.20418 16.626 9.29074 16.5421 9.42042V9.24128H16.2208V10.7168H16.545V9.88965C16.545 9.64549 16.651 9.50981 16.8631 9.50981C16.9288 9.50981 16.9974 9.519 17.0659 9.54691L17.1659 9.24446C17.0941 9.21654 17.0006 9.20418 16.9349 9.20418ZM14.1681 9.24128H13.6378V8.7936H13.3101V9.24128H13.0076V9.53454H13.3101V10.2076C13.3101 10.55 13.4443 10.7539 13.8278 10.7539C13.9685 10.7539 14.1306 10.7108 14.2334 10.6398L14.1399 10.3649C14.0431 10.4204 13.9371 10.4483 13.8528 10.4483C13.6907 10.4483 13.6378 10.3493 13.6378 10.2013V9.53454H14.1681V9.24128ZM9.32034 10.7168V9.79071C9.32034 9.44197 9.09575 9.20736 8.7337 9.20418C8.54339 9.201 8.34701 9.25965 8.20954 9.4667C8.10671 9.30311 7.94461 9.20418 7.71681 9.20418C7.55756 9.20418 7.40189 9.25046 7.28013 9.42324V9.24128H6.95557V10.7168H7.28299V9.89883C7.28299 9.64267 7.42652 9.50663 7.64825 9.50663C7.86356 9.50663 7.97246 9.64549 7.97246 9.89565V10.7168H8.30023V9.89883C8.30023 9.64267 8.44984 9.50663 8.66514 9.50663C8.88652 9.50663 8.99256 9.64549 8.99256 9.89565V10.7168H9.32034Z" fill="white"/>
</svg>
