<svg width="21" height="17" viewBox="0 0 21 17" fill="none" xmlns="http://www.w3.org/2000/svg">
<path d="M10.2793 0.289065C6.49596 0.289065 3.06263 1.7724 0.520964 4.18073C0.370964 4.33073 0.279297 4.53907 0.279297 4.7724C0.279297 5.00573 0.370964 5.21407 0.520964 5.36407L2.58763 7.43073C2.74372 7.58507 2.95393 7.67232 3.17344 7.67387C3.39294 7.67543 3.60437 7.59117 3.76263 7.43906C4.42096 6.8224 5.17096 6.30573 5.9793 5.8974C6.2543 5.76406 6.44596 5.48073 6.44596 5.1474V2.56407C7.6543 2.16407 8.93763 1.95573 10.2793 1.95573C11.6043 1.95573 12.896 2.16407 14.1043 2.55573V5.13906C14.1043 5.46407 14.296 5.75573 14.571 5.88907C15.3876 6.2974 16.1126 6.8224 16.796 7.43073C16.946 7.58073 17.1543 7.66406 17.3626 7.66406C17.6126 7.66406 17.821 7.5724 17.971 7.4224L20.0376 5.35573C20.1876 5.20573 20.2793 4.9974 20.2793 4.76407C20.2793 4.53073 20.1793 4.33073 20.0293 4.18073C17.3992 1.6802 13.9083 0.286818 10.2793 0.289065ZM7.7793 3.6224V6.1224C7.7793 6.1224 2.7793 10.2891 2.7793 12.7891V16.1224H17.7793V12.7891C17.7793 10.2891 12.7793 6.1224 12.7793 6.1224V3.6224H11.1126V5.28907H9.44596V3.6224H7.7793ZM10.2793 7.78906C11.1634 7.78906 12.0112 8.14025 12.6363 8.76538C13.2614 9.3905 13.6126 10.2383 13.6126 11.1224C13.6126 12.0065 13.2614 12.8543 12.6363 13.4794C12.0112 14.1045 11.1634 14.4557 10.2793 14.4557C9.39524 14.4557 8.54739 14.1045 7.92227 13.4794C7.29715 12.8543 6.94596 12.0065 6.94596 11.1224C6.94596 10.2383 7.29715 9.3905 7.92227 8.76538C8.54739 8.14025 9.39524 7.78906 10.2793 7.78906ZM10.2793 9.03906C9.72676 9.03906 9.19686 9.25856 8.80616 9.64926C8.41546 10.04 8.19596 10.5699 8.19596 11.1224C8.19596 11.6749 8.41546 12.2048 8.80616 12.5955C9.19686 12.9862 9.72676 13.2057 10.2793 13.2057C10.8318 13.2057 11.3617 12.9862 11.7524 12.5955C12.1431 12.2048 12.3626 11.6749 12.3626 11.1224C12.3626 10.5699 12.1431 10.04 11.7524 9.64926C11.3617 9.25856 10.8318 9.03906 10.2793 9.03906Z" fill="white"/>
</svg>
