<svg width="18" height="20" viewBox="0 0 18 20" fill="none" xmlns="http://www.w3.org/2000/svg">
<path d="M13.6433 3.14904C12.8937 2.29328 12.4806 1.19428 12.481 0.0566406H9.09247V13.6544C9.06634 14.3902 8.75568 15.0872 8.22591 15.5986C7.69614 16.11 6.9886 16.3958 6.2523 16.3959C4.69513 16.3959 3.40115 15.1238 3.40115 13.5447C3.40115 11.6586 5.2215 10.244 7.09667 10.8252V7.35996C3.31342 6.85552 0.00170898 9.7944 0.00170898 13.5447C0.00170898 17.1964 3.02831 19.7953 6.24133 19.7953C9.68464 19.7953 12.481 16.999 12.481 13.5447V6.64717C13.855 7.63394 15.5047 8.16337 17.1963 8.16047V4.772C17.1963 4.772 15.1347 4.87069 13.6433 3.14904Z" fill="white"/>
</svg>
