<svg width="25" height="20" viewBox="0 0 25 20" fill="none" xmlns="http://www.w3.org/2000/svg">
<path d="M8.08351 19.9418C17.2509 19.9418 22.2658 12.3459 22.2658 5.77019C22.2658 5.55763 22.2658 5.34204 22.2567 5.12948C23.233 4.4227 24.0756 3.54766 24.7451 2.54537C23.8331 2.94748 22.8666 3.21251 21.8771 3.33183C22.9194 2.70879 23.7001 1.72848 24.074 0.573119C23.0947 1.15329 22.0229 1.56057 20.9054 1.77712C20.1541 0.977018 19.16 0.446977 18.077 0.269095C16.9939 0.0912132 15.8825 0.275417 14.9148 0.793175C13.947 1.31093 13.177 2.13335 12.7241 3.13303C12.2711 4.13271 12.1604 5.25387 12.4091 6.32285C10.4273 6.22348 8.48861 5.70865 6.71864 4.81177C4.94867 3.91488 3.38699 2.65596 2.13489 1.11666C1.49925 2.21451 1.30526 3.51312 1.59233 4.74879C1.87939 5.98447 2.62599 7.06457 3.6805 7.76977C2.8903 7.74292 2.11746 7.53073 1.42434 7.15031V7.21863C1.4257 8.3687 1.82411 9.48302 2.55223 10.3733C3.28034 11.2635 4.2935 11.875 5.42045 12.1045C4.99269 12.2223 4.55082 12.281 4.10714 12.2791C3.79435 12.28 3.48218 12.251 3.17491 12.1925C3.49343 13.1825 4.11362 14.0481 4.94864 14.668C5.78365 15.288 6.79166 15.6312 7.83148 15.6496C6.06504 17.037 3.88304 17.7895 1.6369 17.7859C1.24111 17.7875 0.845603 17.7647 0.452637 17.7175C2.73236 19.1709 5.37991 19.9426 8.08351 19.9418Z" fill="white"/>
</svg>
