<svg width="21" height="21" viewBox="0 0 21 21" fill="none" xmlns="http://www.w3.org/2000/svg">
<path d="M17.7681 3.66787C16.8513 2.7418 15.7592 2.00754 14.5557 1.50792C13.3522 1.00831 12.0612 0.753332 10.7581 0.757872C5.29807 0.757872 0.848067 5.20787 0.848067 10.6679C0.848067 12.4179 1.30807 14.1179 2.16807 15.6179L0.768066 20.7579L6.01807 19.3779C7.46807 20.1679 9.09807 20.5879 10.7581 20.5879C16.2181 20.5879 20.6681 16.1379 20.6681 10.6779C20.6681 8.02787 19.6381 5.53787 17.7681 3.66787ZM10.7581 18.9079C9.27807 18.9079 7.82807 18.5079 6.55807 17.7579L6.25807 17.5779L3.13807 18.3979L3.96807 15.3579L3.76807 15.0479C2.94581 13.7348 2.50921 12.2171 2.50807 10.6679C2.50807 6.12787 6.20807 2.42787 10.7481 2.42787C12.9481 2.42787 15.0181 3.28787 16.5681 4.84787C17.3355 5.61184 17.9438 6.52053 18.3575 7.5213C18.7712 8.52206 18.9821 9.59498 18.9781 10.6779C18.9981 15.2179 15.2981 18.9079 10.7581 18.9079ZM15.2781 12.7479C15.0281 12.6279 13.8081 12.0279 13.5881 11.9379C13.3581 11.8579 13.1981 11.8179 13.0281 12.0579C12.8581 12.3079 12.3881 12.8679 12.2481 13.0279C12.1081 13.1979 11.9581 13.2179 11.7081 13.0879C11.4581 12.9679 10.6581 12.6979 9.71807 11.8579C8.97807 11.1979 8.48807 10.3879 8.33807 10.1379C8.19807 9.88787 8.31807 9.75787 8.44807 9.62787C8.55807 9.51787 8.69807 9.33787 8.81807 9.19787C8.93807 9.05787 8.98807 8.94787 9.06807 8.78787C9.14807 8.61787 9.10807 8.47787 9.04807 8.35787C8.98807 8.23787 8.48807 7.01787 8.28807 6.51787C8.08807 6.03787 7.87807 6.09787 7.72807 6.08787H7.24807C7.07807 6.08787 6.81807 6.14787 6.58807 6.39787C6.36807 6.64787 5.72807 7.24787 5.72807 8.46787C5.72807 9.68787 6.61807 10.8679 6.73807 11.0279C6.85807 11.1979 8.48807 13.6979 10.9681 14.7679C11.5581 15.0279 12.0181 15.1779 12.3781 15.2879C12.9681 15.4779 13.5081 15.4479 13.9381 15.3879C14.4181 15.3179 15.4081 14.7879 15.6081 14.2079C15.8181 13.6279 15.8181 13.1379 15.7481 13.0279C15.6781 12.9179 15.5281 12.8679 15.2781 12.7479Z" fill="white"/>
</svg>
